<svg xmlns="http://www.w3.org/2000/svg" xmlns:xlink="http://www.w3.org/1999/xlink" width="20px" height="20px" viewBox="0 0 20 20" version="1.1">
    <title>closed-eyes</title>
    <g id="icons" stroke="none" stroke-width="1" fill="none" fill-rule="evenodd">
        <g id="closed-eyes" fill="#BEBEBE" fill-rule="nonzero">
            <path d="M2.84113885,14.3401962 L6.13957773,11.0417572 C6.04697216,10.7030075 5.99991343,10.353429 5.99964366,10.0022492 C5.99903645,7.7947627 7.78806566,6.00474885 9.99555221,6.00414164 L9.99775127,6.00414164 C10.348931,6.00441141 10.6985095,6.05147014 11.0372592,6.1440757 L13.5760576,3.60527698 C12.4248309,3.20819662 11.2155348,3.00552135 9.99775127,3.00556093 C5.62713737,2.94341415 1.6729086,5.58884901 0.062454264,9.65241443 C-0.0175105868,9.87878298 -0.0175105868,10.1257145 0.062454264,10.3520831 C0.640548639,11.892933 1.59593313,13.2641502 2.84113885,14.3401962 L2.84113885,14.3401962 Z" id="Path"/>
            <path d="M17.1543637,5.66430229 C16.9083769,5.44083776 16.6479354,5.23382055 16.3747321,5.04459581 L19.7031566,1.71617123 C20.0966852,1.32582639 20.0992665,0.690371365 19.7089217,0.296843031 C19.3185768,-0.0966853032 18.683122,-0.0992663815 18.2895934,0.291078659 C18.2876641,0.292992254 18.2857424,0.294913644 18.2838283,0.296843031 L14.5755844,4.00508784 L12.016796,6.5638771 L6.55937912,12.021294 L3.62076953,14.9599017 L0.292345052,18.2883282 C-0.0974483505,18.6811495 -0.0974483505,19.3148351 0.292345052,19.7076565 C0.686516381,20.0941598 1.31750202,20.0941598 1.71167335,19.7076565 L5.41991816,15.9994107 C5.74338155,16.1557831 6.07736947,16.2893792 6.41944506,16.399221 C7.57067166,16.7963014 8.77996777,16.9989776 9.99775127,16.9989376 C14.3683652,17.0610839 18.3225939,14.4156495 19.9330473,10.3520841 C20.0130112,10.1257155 20.0130112,9.87878398 19.9330473,9.65241543 C19.3549537,8.11156545 18.3995686,6.74034828 17.1543637,5.66430229 L17.1543637,5.66430229 Z M9.99775127,14.0003569 C9.64657149,14.0000871 9.29699305,13.9530284 8.95824329,13.8604228 L13.8559257,8.96274037 C13.9485314,9.30149013 13.9955901,9.65106947 13.995859,10.0022492 C13.996467,12.2097358 12.2074369,13.9997496 9.99995032,14.0003569 C9.99921737,14.0003569 9.99848432,14.0003569 9.99775127,14.0003569 L9.99775127,14.0003569 Z" id="Shape"/>
        </g>
    </g>
</svg>