<svg xmlns="http://www.w3.org/2000/svg" xmlns:xlink="http://www.w3.org/1999/xlink" width="13px" height="16px" viewBox="0 0 13 16" version="1.1">
    <title>Download Script</title>
    <g id="icons" stroke="none" stroke-width="1" fill="none" fill-rule="evenodd">
        <g id="Download-Script" transform="translate(0.562500, 0.156250)" fill="#101111" fill-rule="nonzero">
            <path d="M0,0 L0,15.4375 L11.875,15.4375 L11.875,3.91503906 L7.95996094,0 L0,0 Z M1.1875,1.1875 L7.125,1.1875 L7.125,4.75 L10.6875,4.75 L10.6875,14.25 L1.1875,14.25 L1.1875,1.1875 Z M8.3125,2.02246094 L9.85253906,3.5625 L8.3125,3.5625 L8.3125,2.02246094 Z M5.34375,5.9375 L5.34375,8.90625 L3.5625,8.90625 L5.9375,11.28125 L8.3125,8.90625 L6.53125,8.90625 L6.53125,5.9375 L5.34375,5.9375 Z M3.5625,11.875 L3.5625,13.0625 L8.3125,13.0625 L8.3125,11.875 L3.5625,11.875 Z" id="Shape"/>
        </g>
    </g>
</svg>