<svg width="20px" height="20px" viewBox="0 0 19 19" version="1.1" xmlns="http://www.w3.org/2000/svg"><g class="icon-no-stroke-no-fill"><path fill="#7A7498" d="M16.454475,3.48272164 L16.4740041,3.4838036 C17.5785736,3.4838036 18.4740041,4.3792341 18.4740041,5.4838036 L18.4740041,16.4838036 C18.4740041,17.5883731 17.5785736,18.4838036 16.4740041,18.4838036 L5.47400415,18.4838036 C4.41964235,18.4838036 3.55583903,17.6679258 3.47948988,16.6330659 L3.47292219,16.4642745 L3.62214549,16.4788702 L3.77400415,16.4838036 L14.1740041,16.4838036 C15.3913318,16.4838036 16.3877745,15.5380829 16.468698,14.3412757 L16.4740041,14.1838036 L16.4740041,3.7838036 C16.4740041,3.68175425 16.467358,3.58125719 16.454475,3.48272164 Z M4.44697675,5.85113898 L4.44600415,15.4796567 L2.47498669,15.4796567 C1.37041719,15.4796567 0.474986692,14.5842262 0.474986692,13.4796567 L0.474004148,5.8508036 L4.44697675,5.85113898 Z M15.4740041,5.8318036 L15.4749867,13.4796567 C15.4749867,14.5842262 14.5795562,15.4796567 13.4749867,15.4796567 L5.47400415,15.4796567 L5.47498669,5.83197103 L15.4740041,5.8318036 Z M13.4749867,0.483803601 C14.5795562,0.483803601 15.4749867,1.3792341 15.4749867,2.4838036 L15.4740041,4.7958036 L0.474004148,4.7958036 L0.474986692,2.4838036 C0.474986692,1.3792341 1.37041719,0.483803601 2.47498669,0.483803601 L13.4749867,0.483803601 Z" class="icon-hover-active-fill"></path></g></svg>