<svg xmlns="http://www.w3.org/2000/svg" xmlns:xlink="http://www.w3.org/1999/xlink" width="21px" height="24px" viewBox="0 0 21 24" version="1.1">
    <title>Edge App Instances</title>
    <g id="icons" stroke="none" stroke-width="1" fill="none" fill-rule="evenodd" opacity="0.600000024">
        <g id="Edge-App-Instances" transform="translate(0.525391, 0.875000)" fill="#089D96" fill-rule="nonzero">
            <path d="M7.28710938,0 C6.62695312,0 6.05566406,0.241210938 5.57324219,0.723632812 C5.09082031,1.20605469 4.84960938,1.77734375 4.84960938,2.4375 L4.84960938,12.0351562 L4.31640625,11.4765625 L4.11328125,11.2988281 C3.63932292,10.8248698 3.07226562,10.5878906 2.41210938,10.5878906 C1.75195312,10.5878906 1.18489583,10.8248698 0.7109375,11.2988281 C0.236979167,11.7727865 0,12.3398438 0,13 C0,13.6601562 0.236979167,14.2272135 0.7109375,14.7011719 L0.7109375,14.7265625 L7.36328125,21.3027344 L7.4140625,21.328125 L7.43945312,21.3789062 C8.01497396,21.8020833 8.6328125,22.1321615 9.29296875,22.3691406 C10.0039062,22.6230469 10.7402344,22.75 11.5019531,22.75 L12.8984375,22.75 C14.1002604,22.75 15.2132161,22.453776 16.2373047,21.8613281 C17.2613932,21.2688802 18.0696615,20.460612 18.6621094,19.4365234 C19.2545573,18.4124349 19.5507812,17.2994792 19.5507812,16.0976562 L19.5507812,9.75 C19.5507812,9.08984375 19.3095703,8.51855469 18.8271484,8.03613281 C18.3447266,7.55371094 17.7734375,7.3125 17.1132812,7.3125 C16.8085938,7.3125 16.4869792,7.38867188 16.1484375,7.54101562 C16.0130208,6.99934896 15.7252604,6.55501302 15.2851562,6.20800781 C14.8450521,5.8610026 14.3457031,5.6875 13.7871094,5.6875 C13.1777344,5.6875 12.6360677,5.89908854 12.1621094,6.32226562 C11.688151,5.89908854 11.1464844,5.6875 10.5371094,5.6875 C10.2832031,5.6875 10.0123698,5.73828125 9.72460938,5.83984375 L9.72460938,2.4375 C9.72460938,1.77734375 9.48339844,1.20605469 9.00097656,0.723632812 C8.51855469,0.241210938 7.94726563,0 7.28710938,0 Z M7.28710938,1.625 C7.50716146,1.625 7.69759115,1.70540365 7.85839844,1.86621094 C8.01920573,2.02701823 8.09960938,2.21744792 8.09960938,2.4375 L8.09960938,11.375 L9.72460938,11.375 L9.72460938,8.125 C9.72460938,7.90494792 9.80501302,7.71451823 9.96582031,7.55371094 C10.1266276,7.39290365 10.3170573,7.3125 10.5371094,7.3125 C10.7571615,7.3125 10.9475911,7.39290365 11.1083984,7.55371094 C11.2692057,7.71451823 11.3496094,7.90494792 11.3496094,8.125 L11.3496094,11.375 L12.9746094,11.375 L12.9746094,8.125 C12.9746094,7.90494792 13.055013,7.71451823 13.2158203,7.55371094 C13.3766276,7.39290365 13.5670573,7.3125 13.7871094,7.3125 C14.0071615,7.3125 14.1975911,7.39290365 14.3583984,7.55371094 C14.5192057,7.71451823 14.5996094,7.90494792 14.5996094,8.125 L14.5996094,11.375 L16.3007812,11.375 L16.3007812,9.75 C16.3007812,9.52994792 16.3811849,9.33951823 16.5419922,9.17871094 C16.7027995,9.01790365 16.8932292,8.9375 17.1132812,8.9375 C17.3333333,8.9375 17.523763,9.01790365 17.6845703,9.17871094 C17.8453776,9.33951823 17.9257812,9.52994792 17.9257812,9.75 L17.9257812,16.0976562 C17.9257812,17.0286458 17.7014974,17.875 17.2529297,18.6367188 C16.804362,19.3984375 16.1992188,20.0035807 15.4375,20.4521484 C14.6757812,20.9007161 13.8294271,21.125 12.8984375,21.125 L11.5019531,21.125 C10.4016927,21.125 9.37760417,20.7695312 8.4296875,20.0585938 L1.85351562,13.5585938 C1.66731771,13.3723958 1.57421875,13.1861979 1.57421875,13 C1.57421875,12.8138021 1.66731771,12.6276042 1.85351562,12.4414062 C2.03971354,12.2552083 2.22591146,12.1621094 2.41210938,12.1621094 C2.59830729,12.1621094 2.78450521,12.2552083 2.97070312,12.4414062 L6.47460938,15.9453125 L6.47460938,2.4375 C6.47460938,2.21744792 6.55501302,2.02701823 6.71582031,1.86621094 C6.8766276,1.70540365 7.06705729,1.625 7.28710938,1.625 Z" id="Shape"/>
        </g>
    </g>
</svg>