<svg xmlns="http://www.w3.org/2000/svg" xmlns:xlink="http://www.w3.org/1999/xlink" width="21px" height="21px" viewBox="0 0 21 21" version="1.1">
    <title>help</title>
    <g id="icons" stroke="none" stroke-width="1" fill="none" fill-rule="evenodd">
        <g id="help" fill="#FFFFFF" fill-rule="nonzero">
            <path d="M10.5,0 C8.60416667,0 6.8359375,0.483072917 5.1953125,1.44921875 C3.609375,2.36067708 2.36067708,3.609375 1.44921875,5.1953125 C0.483072917,6.8359375 0,8.60416667 0,10.5 C0,12.3958333 0.483072917,14.1640625 1.44921875,15.8046875 C2.36067708,17.390625 3.609375,18.6484375 5.1953125,19.578125 C6.8359375,20.5260417 8.60416667,21 10.5,21 C12.3958333,21 14.1640625,20.5260417 15.8046875,19.578125 C17.390625,18.6484375 18.6484375,17.390625 19.578125,15.8046875 C20.5260417,14.1640625 21,12.3958333 21,10.5 C21,8.60416667 20.5260417,6.8359375 19.578125,5.1953125 C18.6484375,3.609375 17.390625,2.36067708 15.8046875,1.44921875 C14.1640625,0.483072917 12.3958333,0 10.5,0 Z M10.5,1.75 C12.0859375,1.75 13.5625,2.15104167 14.9296875,2.953125 C16.2421875,3.71875 17.28125,4.7578125 18.046875,6.0703125 C18.8489583,7.4375 19.25,8.9140625 19.25,10.5 C19.25,12.0859375 18.8489583,13.5625 18.046875,14.9296875 C17.28125,16.2421875 16.2421875,17.28125 14.9296875,18.046875 C13.5625,18.8489583 12.0859375,19.25 10.5,19.25 C8.9140625,19.25 7.4375,18.8489583 6.0703125,18.046875 C4.7578125,17.28125 3.71875,16.2421875 2.953125,14.9296875 C2.15104167,13.5625 1.75,12.0859375 1.75,10.5 C1.75,8.9140625 2.15104167,7.4375 2.953125,6.0703125 C3.71875,4.7578125 4.7578125,3.71875 6.0703125,2.953125 C7.4375,2.15104167 8.9140625,1.75 10.5,1.75 Z M10.5,5.25 C9.86197917,5.25 9.27864583,5.40950521 8.75,5.72851562 C8.22135417,6.04752604 7.79752604,6.47135417 7.47851562,7 C7.15950521,7.52864583 7,8.11197917 7,8.75 L8.75,8.75 C8.75,8.2578125 8.91861979,7.84309896 9.25585938,7.50585938 C9.59309896,7.16861979 10.0078125,7 10.5,7 C10.9921875,7 11.406901,7.16861979 11.7441406,7.50585938 C12.0813802,7.84309896 12.25,8.2578125 12.25,8.75 C12.25,9.078125 12.1497396,9.37890625 11.9492188,9.65234375 C11.7486979,9.92578125 11.4934896,10.1171875 11.1835938,10.2265625 L10.828125,10.3359375 C10.4635417,10.4453125 10.171875,10.6549479 9.953125,10.9648438 C9.734375,11.2747396 9.625,11.6210938 9.625,12.0039062 L9.625,13.125 L11.375,13.125 L11.375,12.0039062 L11.7304688,11.8945312 C12.4049479,11.6757812 12.9518229,11.2747396 13.3710938,10.6914062 C13.7903646,10.1080729 14,9.4609375 14,8.75 C14,8.11197917 13.8404948,7.52864583 13.5214844,7 C13.202474,6.47135417 12.7786458,6.04752604 12.25,5.72851562 C11.7213542,5.40950521 11.1380208,5.25 10.5,5.25 Z M9.625,14 L9.625,15.75 L11.375,15.75 L11.375,14 L9.625,14 Z" id="Shape"/>
        </g>
    </g>
</svg>