<svg xmlns="http://www.w3.org/2000/svg" xmlns:xlink="http://www.w3.org/1999/xlink" width="19px" height="19px" viewBox="0 0 19 19" version="1.1">
    <title>info</title>
    <g id="icons" stroke="none" stroke-width="1" fill="none" fill-rule="evenodd" opacity="0.300000012">
        <g id="info" transform="translate(0.281250, 0.031250)" fill="#101111" fill-rule="nonzero">
            <path d="M9.34375,0 C7.65169271,0 6.07942708,0.426757812 4.62695312,1.28027344 C3.21940104,2.10384115 2.10384115,3.21940104 1.28027344,4.62695312 C0.426757812,6.07942708 0,7.65169271 0,9.34375 C0,11.0358073 0.426757812,12.6080729 1.28027344,14.0605469 C2.10384115,15.468099 3.21940104,16.5836589 4.62695312,17.4072266 C6.07942708,18.2607422 7.65169271,18.6875 9.34375,18.6875 C11.0358073,18.6875 12.6080729,18.2607422 14.0605469,17.4072266 C15.468099,16.5836589 16.5836589,15.468099 17.4072266,14.0605469 C18.2607422,12.6080729 18.6875,11.0358073 18.6875,9.34375 C18.6875,7.65169271 18.2607422,6.07942708 17.4072266,4.62695312 C16.5836589,3.21940104 15.468099,2.10384115 14.0605469,1.28027344 C12.6080729,0.426757812 11.0358073,0 9.34375,0 Z M9.34375,1.4375 C10.78125,1.4375 12.1139323,1.796875 13.3417969,2.515625 C14.5247396,3.21940104 15.468099,4.16276042 16.171875,5.34570312 C16.890625,6.57356771 17.25,7.90625 17.25,9.34375 C17.25,10.78125 16.890625,12.1139323 16.171875,13.3417969 C15.468099,14.5247396 14.5247396,15.468099 13.3417969,16.171875 C12.1139323,16.890625 10.78125,17.25 9.34375,17.25 C7.90625,17.25 6.57356771,16.890625 5.34570312,16.171875 C4.16276042,15.468099 3.21940104,14.5247396 2.515625,13.3417969 C1.796875,12.1139323 1.4375,10.78125 1.4375,9.34375 C1.4375,7.90625 1.796875,6.57356771 2.515625,5.34570312 C3.21940104,4.16276042 4.16276042,3.21940104 5.34570312,2.515625 C6.57356771,1.796875 7.90625,1.4375 9.34375,1.4375 Z M8.625,5.03125 L8.625,6.46875 L10.0625,6.46875 L10.0625,5.03125 L8.625,5.03125 Z M8.625,7.90625 L8.625,13.65625 L10.0625,13.65625 L10.0625,7.90625 L8.625,7.90625 Z" id="Shape"/>
        </g>
    </g>
</svg>