<svg xmlns="http://www.w3.org/2000/svg" xmlns:xlink="http://www.w3.org/1999/xlink" width="78px" height="32px" viewBox="0 0 78 32" version="1.1">
    <title>logo-login@1.5x</title>
    <g id="Rev1.1" stroke="none" stroke-width="1" fill="none" fill-rule="evenodd">
        <g id="RAA-Rev1.0-1" transform="translate(-954.000000, -191.000000)" fill="#ffffff" fill-rule="nonzero">
            <g id="logo-login" transform="translate(954.000000, 191.000000)">
                <g id="A-Copy" transform="translate(24.214844, 0.000000)">
                    <polygon id="Shape" points="21.0117188 31.904297 18.8417969 25.2656251 12.9873047 8.31236599 7.13281253 25.2656251 4.81250002 31.904297 0 31.904297 12.7832032 0 13.9218751 0 25.7812501 31.904297"/>
                </g>
                <g id="A-Copy-2" transform="translate(51.648438, 0.000000)">
                    <polygon id="Shape" points="21.0117188 31.904297 18.8417969 25.2656251 12.9873047 8.31236599 7.13281253 25.2656251 4.81250002 31.904297 0 31.904297 12.7832032 0 13.9218751 0 25.7812501 31.904297"/>
                </g>
                <g id="R" transform="translate(0.000000, 0.107422)">
                    <path d="M17.2519532,31.7968751 L8.85156253,18.2832032 C7.89192711,18.2832032 6.37369794,18.2115886 4.29687502,18.0683594 L4.29687502,31.7968751 L0,31.7968751 L0,0.322265626 C0.157552084,0.322265626 1.27115886,0.268554689 3.34082033,0.161132813 C5.41048179,0.0537109377 6.91796878,0 7.86328128,0 C15.4257813,0 19.2070313,3.00781251 19.2070313,9.02343754 C19.2070313,11 18.5983074,12.7796224 17.3808594,14.3623047 C16.1634115,15.944987 14.7167969,16.9296876 13.0410157,17.3164063 L22.1718751,31.7968751 L17.2519532,31.7968751 Z M4.29687502,4.18945314 L4.29687502,14.4160157 C5.32812502,14.5592448 6.33072919,14.6308594 7.30468753,14.6308594 C9.88281254,14.6308594 11.7591146,14.2154948 12.9335938,13.3847657 C14.108073,12.5540365 14.6953126,11.0716146 14.6953126,8.93750004 C14.6953126,7.17578128 14.0651042,5.90820315 12.8046876,5.13476565 C11.5442709,4.36132814 9.55338545,3.97460939 6.83203128,3.97460939 C6.40234378,3.97460939 5.55729169,4.04622397 4.29687502,4.18945314 Z" id="Shape"/>
                </g>
            </g>
        </g>
    </g>
</svg>