<svg xmlns="http://www.w3.org/2000/svg" xmlns:xlink="http://www.w3.org/1999/xlink" width="22px" height="21px" viewBox="0 0 22 21" version="1.1">
    <title>Logout</title>
    <g id="icons" stroke="none" stroke-width="1" fill="none" fill-rule="evenodd">
        <g id="Logout" transform="translate(0.500000, 0.000000)" fill="#FFFFFF" fill-rule="nonzero">
            <path d="M10.5,0 C8.60416667,0 6.8359375,0.483072917 5.1953125,1.44921875 C3.609375,2.36067708 2.36067708,3.609375 1.44921875,5.1953125 C0.483072917,6.8359375 0,8.60416667 0,10.5 C0,12.3958333 0.483072917,14.1640625 1.44921875,15.8046875 C2.36067708,17.390625 3.609375,18.6484375 5.1953125,19.578125 C6.8359375,20.5260417 8.60416667,21 10.5,21 C12.25,21 13.890625,20.5898438 15.421875,19.7695312 C16.8984375,18.9856771 18.1197917,17.9101562 19.0859375,16.5429688 L17.6640625,15.53125 C16.8619792,16.6796875 15.8411458,17.5820312 14.6015625,18.2382812 C13.3255208,18.9127604 11.9583333,19.25 10.5,19.25 C8.9140625,19.25 7.4375,18.8489583 6.0703125,18.046875 C4.7578125,17.28125 3.71875,16.2421875 2.953125,14.9296875 C2.15104167,13.5625 1.75,12.0859375 1.75,10.5 C1.75,8.9140625 2.15104167,7.4375 2.953125,6.0703125 C3.71875,4.7578125 4.7578125,3.71875 6.0703125,2.953125 C7.4375,2.15104167 8.9140625,1.75 10.5,1.75 C11.9583333,1.75 13.3255208,2.08723958 14.6015625,2.76171875 C15.8411458,3.41796875 16.8619792,4.3203125 17.6640625,5.46875 L19.0859375,4.45703125 C18.1197917,3.08984375 16.8984375,2.01432292 15.421875,1.23046875 C13.890625,0.41015625 12.25,0 10.5,0 Z M16.9257812,6.37109375 L15.6679688,7.62890625 L17.6640625,9.625 L7,9.625 L7,11.375 L17.6640625,11.375 L15.6679688,13.3710938 L16.9257812,14.6289062 L20.4257812,11.1289062 L21.0273438,10.5 L20.4257812,9.87109375 L16.9257812,6.37109375 Z" id="Shape"/>
        </g>
    </g>
</svg>