<svg xmlns="http://www.w3.org/2000/svg" xmlns:xlink="http://www.w3.org/1999/xlink" width="20px" height="13px" viewBox="0 0 20 13" version="1.1">
    <title>fa-eye@1.5x</title>
    <g id="Rev1.1" stroke="none" stroke-width="1" fill="none" fill-rule="evenodd">
        <g id="RAA-Rev1.0-1" transform="translate(-1261.000000, -396.000000)" fill="#BEBEBE">
            <g id="Group-6" transform="translate(953.000000, 314.000000)">
                <g id="Password-(focus)" transform="translate(0.000000, 66.000000)">
                    <g id="fa-eye" transform="translate(308.230435, 16.018261)">
                        <path d="M0.213913043,7.02608696 C1.22956522,8.68521739 2.59565217,10.0321739 4.31304348,11.0278261 C6.03043478,12.0426087 7.84608696,12.5495652 9.75826087,12.5495652 C11.6713043,12.5495652 13.4869565,12.0426087 15.2043478,11.0469565 C16.9217391,10.0321739 18.2878261,8.70434783 19.3026087,7.02608696 C19.4391304,6.77217391 19.5173913,6.51826087 19.5173913,6.28434783 C19.5173913,6.03043478 19.4391304,5.7773913 19.3026087,5.52347826 C18.2878261,3.86434783 16.9217391,2.5173913 15.2043478,1.52173913 C13.4869565,0.506956522 11.6713043,0 9.75826087,0 C7.84608696,0 6.03043478,0.506956522 4.31304348,1.52173913 C2.59565217,2.5173913 1.22956522,3.86434783 0.213913043,5.52347826 C0.0773913043,5.7773913 0,6.03043478 0,6.28434783 C0,6.51826087 0.0773913043,6.77217391 0.213913043,7.02608696 L0.213913043,7.02608696 Z M5.5426087,2.42 C5.09391304,3.18086957 4.87913043,4.00086957 4.87913043,4.87913043 C4.87913043,6.22608696 5.34782609,7.3773913 6.30347826,8.33391304 C7.26,9.29043478 8.41217391,9.75913043 9.75826087,9.75913043 C11.1052174,9.75913043 12.2565217,9.29043478 13.193913,8.33391304 C14.1504348,7.3773913 14.6382609,6.22608696 14.6382609,4.87913043 C14.6382609,4.00086957 14.4034783,3.18086957 13.9747826,2.42 C15.633913,3.27913043 17.0191304,4.56695652 18.1121739,6.28434783 C17.1556522,7.76782609 15.946087,8.95826087 14.4817391,9.83652174 C13.0373913,10.7147826 11.4565217,11.1643478 9.75826087,11.1643478 C8.06086957,11.1643478 6.48,10.7147826 5.01565217,9.83652174 C3.57130435,8.95826087 2.36086957,7.76782609 1.38521739,6.28434783 C2.49826087,4.56695652 3.88347826,3.27913043 5.5426087,2.42 L5.5426087,2.42 Z M7.41652174,2.5373913 C8.06086957,1.89304348 8.84086957,1.56086957 9.75826087,1.56086957 C9.89565217,1.56086957 10.0121739,1.62 10.1295652,1.7173913 C10.2269565,1.81478261 10.266087,1.93217391 10.266087,2.08782609 C10.266087,2.22434783 10.2269565,2.36173913 10.1295652,2.45913043 C10.0121739,2.55652174 9.89565217,2.61478261 9.75826087,2.61478261 C9.13391304,2.61478261 8.58782609,2.82956522 8.15826087,3.27913043 C7.70956522,3.72782609 7.49478261,4.25478261 7.49478261,4.87913043 C7.49478261,5.03565217 7.43565217,5.15217391 7.33826087,5.25043478 C7.24086957,5.34782609 7.10434783,5.40608696 6.96782609,5.40608696 C6.81130435,5.40608696 6.69478261,5.34782609 6.59652174,5.25043478 C6.49913043,5.15217391 6.44086957,5.03565217 6.44086957,4.87913043 C6.44086957,3.96173913 6.77217391,3.18086957 7.41652174,2.5373913 L7.41652174,2.5373913 Z" id="Fill-1"/>
                    </g>
                </g>
            </g>
        </g>
    </g>
</svg>