<svg xmlns="http://www.w3.org/2000/svg" xmlns:xlink="http://www.w3.org/1999/xlink" width="15px" height="15px" viewBox="0 0 15 15" version="1.1">
    <title>Refresh</title>
    <g id="icons" stroke="none" stroke-width="1" fill="none" fill-rule="evenodd">
        <g id="Refresh" transform="translate(0.894531, 0.750000)" fill="#101111" fill-rule="nonzero">
            <path d="M6.60546875,0 C5.61588542,0 4.66959635,0.197916667 3.76660156,0.59375 C2.91308594,0.96484375 2.15852865,1.4905599 1.50292969,2.17089844 C0.847330729,2.85123698 0.346354167,3.63671875 0,4.52734375 L1.09472656,4.97265625 C1.37923177,4.23046875 1.79361979,3.57486979 2.33789062,3.00585938 C2.88216146,2.43684896 3.51302083,1.99153646 4.23046875,1.66992188 C4.98502604,1.34830729 5.77669271,1.1875 6.60546875,1.1875 C7.54557292,1.1875 8.43619792,1.40397135 9.27734375,1.83691406 C10.09375,2.25748698 10.7740885,2.83268229 11.3183594,3.5625 L8.98046875,3.5625 L8.98046875,4.75 L13.1367188,4.75 L13.1367188,0.59375 L11.9492188,0.59375 L11.9492188,2.43066406 C11.28125,1.67610677 10.4957682,1.08235677 9.59277344,0.649414062 C8.64029948,0.216471354 7.64453125,0 6.60546875,0 Z M12.1162109,9.27734375 C11.8317057,10.0195312 11.4173177,10.6751302 10.8730469,11.2441406 C10.328776,11.813151 9.69791667,12.2584635 8.98046875,12.5800781 C8.22591146,12.9016927 7.43424479,13.0625 6.60546875,13.0625 C5.65299479,13.0625 4.7561849,12.8460286 3.91503906,12.4130859 C3.1110026,11.992513 2.43066406,11.4173177 1.87402344,10.6875 L4.23046875,10.6875 L4.23046875,9.5 L0.07421875,9.5 L0.07421875,13.65625 L1.26171875,13.65625 L1.26171875,11.8193359 C1.9296875,12.5738932 2.71516927,13.1614583 3.61816406,13.5820312 C4.55826823,14.0273438 5.55403646,14.25 6.60546875,14.25 C7.59505208,14.25 8.54134115,14.0520833 9.44433594,13.65625 C10.2978516,13.2851562 11.0524089,12.7594401 11.7080078,12.0791016 C12.3636068,11.398763 12.8645833,10.6132812 13.2109375,9.72265625 L12.1162109,9.27734375 Z" id="Shape"/>
        </g>
    </g>
</svg>