<svg xmlns="http://www.w3.org/2000/svg" xmlns:xlink="http://www.w3.org/1999/xlink" width="19px" height="19px" viewBox="0 0 19 19" version="1.1">
    <title>search</title>
    <g id="icons" stroke="none" stroke-width="1" fill="none" fill-rule="evenodd" opacity="0.5">
        <g id="search" transform="translate(0.108398, 0.031250)" fill="#101111" fill-rule="nonzero">
            <path d="M11.2978516,0 C9.99511719,0 8.78971354,0.329427083 7.68164062,0.98828125 C6.58854167,1.6171875 5.72753906,2.4781901 5.09863281,3.57128906 C4.43977865,4.67936198 4.11035156,5.88476562 4.11035156,7.1875 C4.11035156,8.04101562 4.25260417,8.85335286 4.53710938,9.62451172 C4.82161458,10.3956706 5.21842448,11.0957031 5.72753906,11.7246094 L0,17.4521484 L1.03320312,18.4853516 L6.76074219,12.7578125 C7.38964844,13.2669271 8.08968099,13.663737 8.86083984,13.9482422 C9.6319987,14.2327474 10.4443359,14.375 11.2978516,14.375 C12.6005859,14.375 13.8059896,14.0455729 14.9140625,13.3867188 C16.0071615,12.7578125 16.8681641,11.8968099 17.4970703,10.8037109 C18.1559245,9.69563802 18.4853516,8.49023438 18.4853516,7.1875 C18.4853516,5.88476562 18.1559245,4.67936198 17.4970703,3.57128906 C16.8681641,2.4781901 16.0071615,1.6171875 14.9140625,0.98828125 C13.8059896,0.329427083 12.6005859,0 11.2978516,0 Z M11.2978516,1.4375 C12.3460286,1.4375 13.3081055,1.69580078 14.184082,2.21240234 C15.0600586,2.72900391 15.7563477,3.42529297 16.2729492,4.30126953 C16.7895508,5.17724609 17.0478516,6.13932292 17.0478516,7.1875 C17.0478516,8.23567708 16.7895508,9.19775391 16.2729492,10.0737305 C15.7563477,10.949707 15.0600586,11.6459961 14.184082,12.1625977 C13.3081055,12.6791992 12.3460286,12.9375 11.2978516,12.9375 C10.2496745,12.9375 9.28759766,12.6791992 8.41162109,12.1625977 C7.53564453,11.6459961 6.83935547,10.949707 6.32275391,10.0737305 C5.80615234,9.19775391 5.54785156,8.23567708 5.54785156,7.1875 C5.54785156,6.13932292 5.80615234,5.17724609 6.32275391,4.30126953 C6.83935547,3.42529297 7.53564453,2.72900391 8.41162109,2.21240234 C9.28759766,1.69580078 10.2496745,1.4375 11.2978516,1.4375 Z" id="Shape"/>
        </g>
    </g>
</svg>